<svg xmlns="http://www.w3.org/2000/svg" viewBox="0 0 136.56 50"><defs><style>.cls-1{fill:#fff;}</style></defs><title>apple-music</title><g id="Layer_2" data-name="Layer 2"><g id="Layer_1-2" data-name="Layer 1"><g id="apple-music"><path d="M124.65,0H10.55L9.4,0A16.44,16.44,0,0,0,6.9.24,8.4,8.4,0,0,0,4.52,1a8.06,8.06,0,0,0-2,1.47A7.86,7.86,0,0,0,1,4.52,8.28,8.28,0,0,0,.24,6.9,16.35,16.35,0,0,0,0,9.4c0,.38,0,.77,0,1.15V39.45c0,.39,0,.76,0,1.15a16.32,16.32,0,0,0,.22,2.5A8.24,8.24,0,0,0,1,45.48a7.74,7.74,0,0,0,1.47,2,7.83,7.83,0,0,0,2,1.47,8.38,8.38,0,0,0,2.38.79A16.94,16.94,0,0,0,9.4,50H127.16a16.71,16.71,0,0,0,2.5-.22A8.48,8.48,0,0,0,132,49a7.82,7.82,0,0,0,2-1.47,8,8,0,0,0,1.48-2,8.22,8.22,0,0,0,.77-2.38,17,17,0,0,0,.23-2.5c0-.39,0-.76,0-1.15s0-.91,0-1.37V11.92c0-.46,0-.91,0-1.37s0-.77,0-1.15a16.65,16.65,0,0,0-.23-2.5,8.24,8.24,0,0,0-.77-2.38A8.09,8.09,0,0,0,132,1a8.43,8.43,0,0,0-2.38-.78,16.39,16.39,0,0,0-2.5-.22L126,0Z"/><path class="cls-1" d="M45.2,12.5H40.83v-8h1v7.14H45.2Zm2.68-8a.68.68,0,0,0-1,1,.63.63,0,0,0,.47.19.67.67,0,0,0,.49-.18A.64.64,0,0,0,48.06,5,.65.65,0,0,0,47.88,4.54Zm0,2.2h-1V12.5h1ZM52,9.16a2.56,2.56,0,0,1-.81-.43A.67.67,0,0,1,51,8.18a.72.72,0,0,1,.25-.56,1,1,0,0,1,.69-.22,2.11,2.11,0,0,1,1.15.33L53.32,7a2.65,2.65,0,0,0-1.39-.34,2,2,0,0,0-1.42.48A1.53,1.53,0,0,0,50,8.3q0,1.06,1.51,1.63a2.33,2.33,0,0,1,.81.45.82.82,0,0,1,.24.61q0,.86-1.1.86a2.49,2.49,0,0,1-1.35-.4l-.25.78a3.13,3.13,0,0,0,1.58.38A2.38,2.38,0,0,0,53,12.13a1.53,1.53,0,0,0,.57-1.24Q53.52,9.74,52,9.16Zm6.11-2.41H56.68V5.38l-1,.31V6.75h-.88v.78h.88v3.16a2.18,2.18,0,0,0,.4,1.48,1.44,1.44,0,0,0,1.12.43,2.69,2.69,0,0,0,.91-.13l0-.78a2.18,2.18,0,0,1-.59.07q-.77,0-.77-1.1V7.53h1.47ZM64,7.56a2.06,2.06,0,0,0-1.84-.94,2.37,2.37,0,0,0-1.93.87,3.37,3.37,0,0,0-.72,2.21,2.93,2.93,0,0,0,.74,2.1,2.66,2.66,0,0,0,2,.78,4.59,4.59,0,0,0,1.88-.35L64,11.51a4,4,0,0,1-1.54.28,1.9,1.9,0,0,1-1.34-.46,2,2,0,0,1-.59-1.53h3.94a3.15,3.15,0,0,0,0-.51A3.12,3.12,0,0,0,64,7.56Zm-3.49,1.5a2.32,2.32,0,0,1,.43-1.12,1.35,1.35,0,0,1,1.14-.57,1.24,1.24,0,0,1,1.13.58,2,2,0,0,1,.27,1.1ZM71.13,12.5V9a2.5,2.5,0,0,0-.7-1.93,1.83,1.83,0,0,0-1.28-.48A2.2,2.2,0,0,0,68,7a2,2,0,0,0-.69.72h0l-.06-.93h-.91q0,.84,0,1.56V12.5h1V9a1.6,1.6,0,0,1,.41-1.09,1.31,1.31,0,0,1,1-.47q1.29,0,1.29,1.69V12.5h1Zm10.08-5a2.52,2.52,0,0,0-2-.86,2.62,2.62,0,0,0-2.07.88,3.2,3.2,0,0,0-.73,2.16,3.14,3.14,0,0,0,.7,2.09,2.52,2.52,0,0,0,2,.86,2.61,2.61,0,0,0,2.07-.88,3.2,3.2,0,0,0,.72-2.16A3.09,3.09,0,0,0,81.21,7.48Zm-.77,3.62a1.49,1.49,0,0,1-2.56,0,2.62,2.62,0,0,1-.42-1.48,2.69,2.69,0,0,1,.4-1.51,1.46,1.46,0,0,1,1.31-.72,1.44,1.44,0,0,1,1.28.72,2.65,2.65,0,0,1,.4,1.49A2.69,2.69,0,0,1,80.44,11.11Zm8.17,1.39V9a2.49,2.49,0,0,0-.7-1.93,1.83,1.83,0,0,0-1.28-.48A2.19,2.19,0,0,0,85.46,7a2,2,0,0,0-.69.72h0l-.06-.93h-.91q0,.84,0,1.56V12.5h1V9a1.6,1.6,0,0,1,.41-1.09,1.3,1.3,0,0,1,1-.47q1.29,0,1.29,1.69V12.5h1Zm21.77,15.62c0,3.49,1.48,5.12,3.82,5.12a3.24,3.24,0,0,0,3.46-3.42h3.69v.39c0,3.29-2.61,6.25-7.22,6.25-4.81,0-7.65-3.06-7.65-8.35v-2c0-5.29,2.86-8.4,7.67-8.4,4.48,0,7.2,2.92,7.2,6.42v.38h-3.69a3.39,3.39,0,0,0-3.49-3.58c-2.29,0-3.79,1.71-3.79,5.18v2Zm-11.67,8V18h3.84v18.1ZM84.77,22.87c0,1,.85,1.75,2.47,2.09l2.74.61c2.65.57,4.9,1.86,4.9,5.15,0,3.56-2.77,5.74-7.25,5.74-5.33,0-7.06-3-7.11-5.54H84.2c.11,1.34,1.31,2.54,3.61,2.54,2.14,0,3.28-1,3.28-2.37,0-1.23-.93-1.83-2.76-2.24l-2.72-.62c-2.55-.55-4.67-2-4.67-5.05,0-3.56,3-5.53,6.85-5.53,4,0,6.77,2.23,6.81,5.43H91c-.09-1.27-1.14-2.45-3.23-2.45-1.86,0-3,.88-3,2.27ZM77.26,30c0,3.86-2.8,6.48-7.4,6.48s-7.4-2.63-7.4-6.48V18h3.82V29.44c0,2.44,1.45,3.77,3.58,3.77s3.57-1.34,3.57-3.77V18h3.83V30Zm-22,6.14V24.38H55.1L50.93,33.7h-2.4l-4.18-9.31h-.16V36.11H40.77V18H44.7l5,11.22h.12l5-11.22h3.9v18.1H55.25ZM33.61,28.72a5.47,5.47,0,0,0,1.65,1.11l-.2.58c-.07.19-.14.38-.22.55a10.78,10.78,0,0,1-.6,1.27c-.22.4-.45.77-.68,1.12s-.63.89-.9,1.24a5.74,5.74,0,0,1-.75.82,3.27,3.27,0,0,1-2.12,1,5.49,5.49,0,0,1-2-.49,5.25,5.25,0,0,0-2.09-.47,5.41,5.41,0,0,0-2.17.47,5.55,5.55,0,0,1-1.87.52,2.9,2.9,0,0,1-2.17-1,11.91,11.91,0,0,1-1.72-2.13A15,15,0,0,1,16,29.54a13.66,13.66,0,0,1-.76-4.46,8.35,8.35,0,0,1,1-4.27,6.13,6.13,0,0,1,2.17-2.27,5.68,5.68,0,0,1,2.93-.86,6.17,6.17,0,0,1,2.26.55,6.08,6.08,0,0,0,1.8.54,13.67,13.67,0,0,0,2-.64,6.52,6.52,0,0,1,2.71-.5,5.85,5.85,0,0,1,4.51,2.45A5.17,5.17,0,0,0,32,24.81a5.33,5.33,0,0,0,1.65,3.92ZM28.86,15.64a4.1,4.1,0,0,1-3.64,1.74,1.05,1.05,0,0,1,0-.24V16.9a5.09,5.09,0,0,1,1.33-3.35,5.32,5.32,0,0,1,1.69-1.31,4.85,4.85,0,0,1,1.93-.57,1.25,1.25,0,0,1,0,.25v.24a5.41,5.41,0,0,1-1.31,3.47Z"/></g></g></g></svg>