<svg xmlns="http://www.w3.org/2000/svg" viewBox="0 0 136.56 50"><defs><style>.cls-1,.cls-2{fill:#fff;}.cls-2{font-size:12px;font-family:AvenirNextLTPro-Medium, Avenir Next LT Pro;}.cls-3{letter-spacing:0em;}.cls-4{letter-spacing:0em;}.cls-5{letter-spacing:0.03em;}.cls-6{letter-spacing:0em;}.cls-7{letter-spacing:0em;}.cls-8{letter-spacing:0em;}</style></defs><title>bandcamp</title><g id="Layer_2" data-name="Layer 2"><g id="Layer_1-2" data-name="Layer 1"><g id="bandcamp"><path id="button_bg" data-name="button bg" d="M124.65,0H10.55L9.4,0A16.44,16.44,0,0,0,6.9.24,8.4,8.4,0,0,0,4.52,1a8.06,8.06,0,0,0-2,1.47A7.86,7.86,0,0,0,1,4.52,8.28,8.28,0,0,0,.24,6.9,16.35,16.35,0,0,0,0,9.4c0,.38,0,.77,0,1.15V39.45c0,.39,0,.76,0,1.15a16.32,16.32,0,0,0,.22,2.5A8.24,8.24,0,0,0,1,45.48a7.74,7.74,0,0,0,1.47,2,7.83,7.83,0,0,0,2,1.47,8.38,8.38,0,0,0,2.38.79A16.94,16.94,0,0,0,9.4,50H127.16a16.71,16.71,0,0,0,2.5-.22A8.48,8.48,0,0,0,132,49a7.82,7.82,0,0,0,2-1.47,8,8,0,0,0,1.48-2,8.22,8.22,0,0,0,.77-2.38,17,17,0,0,0,.23-2.5c0-.39,0-.76,0-1.15s0-.91,0-1.37V11.92c0-.46,0-.91,0-1.37s0-.77,0-1.15a16.65,16.65,0,0,0-.23-2.5,8.24,8.24,0,0,0-.77-2.38A8.09,8.09,0,0,0,132,1a8.43,8.43,0,0,0-2.38-.78,16.39,16.39,0,0,0-2.5-.22L126,0Z"/><path id="bandcamp-2" data-name="bandcamp" class="cls-1" d="M32.87,19.34h2.35V25h0a3.85,3.85,0,0,1,3.18-1.73c3.36,0,5,2.65,5,5.87,0,3-1.44,5.76-4.6,5.76-1.44,0-3-.36-3.69-1.81h0v1.52H32.87V19.34Zm5.26,5.83c-2,0-3,1.56-3,3.91s1.09,3.89,3,3.89c2.15,0,3-2,3-3.89s-1-3.91-3-3.91m23.53-1.92a3.8,3.8,0,0,0-3.32,2l0,0V23.55H56.07v9.4L54.5,33c-.43,0-.56-.23-.56-.83V26.45c0-2.33-2.19-3.2-4.27-3.2-2.35,0-4.68.83-4.85,3.67h2.35c.1-1.2,1-1.75,2.35-1.75.95,0,2.21.24,2.21,1.49,0,1.43-1.51,1.24-3.2,1.56-2,.23-4.11.68-4.11,3.44,0,2.16,1.73,3.22,3.65,3.22a5.37,5.37,0,0,0,3.69-1.34,1.59,1.59,0,0,0,1.82,1.34c.39,0,1.13-.15,4.82-.28v0h0V28.07A2.66,2.66,0,0,1,61,25.17c1.38,0,2,.75,2.08,2.48v6.94h2.35V27a3.42,3.42,0,0,0-3.77-3.76M51.59,30.87C51.59,32.41,50,33,49,33c-.83,0-2.17-.32-2.17-1.41,0-1.28.91-1.67,1.92-1.84a8.16,8.16,0,0,0,2.89-.66Zm26,3.71H75.33V33.09h0A3.51,3.51,0,0,1,72,34.88c-3.36,0-5-2.58-5-5.89,0-4,2.29-5.74,4.62-5.74A4.06,4.06,0,0,1,75.16,25h0V19.34h2.35V34.58ZM72.29,33c2.1,0,3-2,3-3.91,0-2.43-1.13-3.89-3-3.89-2.21,0-3,2-3,4s.91,3.78,3,3.78m14.62-5.72h2.35c-.23-2.71-2.33-4-4.81-4-3.51,0-5.26,2.6-5.26,5.94s1.84,5.7,5.18,5.7c2.74,0,4.46-1.58,4.89-4.44H86.9A2.57,2.57,0,0,1,84.37,33c-2,0-2.83-1.94-2.83-3.78,0-3.35,1.71-4,2.93-4a2.28,2.28,0,0,1,2.44,2.07Zm26.83-4a3.82,3.82,0,0,0-3.34,1.84,3,3,0,0,0-3-1.84,3.54,3.54,0,0,0-3.28,1.84h-.06V23.55h-2.23v9.4l-1.57,0c-.43,0-.56-.23-.56-.83V26.45c0-2.33-2.19-3.2-4.27-3.2-2.35,0-4.68.83-4.85,3.67h2.35c.1-1.2,1-1.75,2.35-1.75.95,0,2.21.24,2.21,1.49,0,1.43-1.51,1.24-3.2,1.56-2,.23-4.11.68-4.11,3.44,0,2.16,1.73,3.22,3.65,3.22a5.37,5.37,0,0,0,3.69-1.34,1.59,1.59,0,0,0,1.82,1.34c.39,0,1.13-.15,4.78-.28v0h0V28c0-1.84,1.11-2.86,2.33-2.86,1.42,0,1.88.81,1.88,2.33v7.09h2.35V28.11c0-1.86.68-2.95,2.27-2.95,1.84,0,1.94,1.22,1.94,3v6.45h2.35V27c0-2.69-1.32-3.72-3.57-3.72M97.35,30.87c0,1.54-1.61,2.09-2.64,2.09-.83,0-2.17-.32-2.17-1.41,0-1.28.91-1.67,1.92-1.84a8.16,8.16,0,0,0,2.89-.66Zm22.08-7.32h2.23V25h0a3.54,3.54,0,0,1,3.3-1.79c3.36,0,5,2.65,5,5.87,0,3-1.45,5.76-4.6,5.76a4.1,4.1,0,0,1-3.57-1.73h0v5.51h-2.35V23.55Zm5.26,1.62c-2,0-3,1.56-3,3.91s1.09,3.89,3,3.89c2.15,0,3-2,3-3.89s-1-3.91-3-3.91M32.89,19.34H15.24L7,34.55H24.65Z"/><text class="cls-2" transform="translate(15 14.05)"><tspan class="cls-3">L</tspan><tspan class="cls-4" x="6.17" y="0">i</tspan><tspan class="cls-5" x="9.24" y="0">s</tspan><tspan class="cls-6" x="14.89" y="0">te</tspan><tspan class="cls-7" x="25.63" y="0">n </tspan><tspan class="cls-8" x="35.62" y="0">o</tspan><tspan x="42.9" y="0">n</tspan></text></g></g></g></svg>