<svg xmlns="http://www.w3.org/2000/svg" viewBox="0 0 136.56 50"><defs><style>.cls-1{fill:#fff;}</style></defs><title>google-play-music</title><g id="Layer_2" data-name="Layer 2"><g id="Layer_1-2" data-name="Layer 1"><g id="google-play-music"><path d="M124.65,0H10.55L9.4,0A16.44,16.44,0,0,0,6.9.24,8.4,8.4,0,0,0,4.52,1a8.06,8.06,0,0,0-2,1.47A7.86,7.86,0,0,0,1,4.52,8.28,8.28,0,0,0,.24,6.9,16.35,16.35,0,0,0,0,9.4c0,.38,0,.77,0,1.15V39.45c0,.39,0,.76,0,1.15a16.32,16.32,0,0,0,.22,2.5A8.24,8.24,0,0,0,1,45.48a7.74,7.74,0,0,0,1.47,2,7.83,7.83,0,0,0,2,1.47,8.38,8.38,0,0,0,2.38.79A16.94,16.94,0,0,0,9.4,50H127.16a16.71,16.71,0,0,0,2.5-.22A8.48,8.48,0,0,0,132,49a7.82,7.82,0,0,0,2-1.47,8,8,0,0,0,1.48-2,8.22,8.22,0,0,0,.77-2.38,17,17,0,0,0,.23-2.5c0-.39,0-.76,0-1.15s0-.91,0-1.37V11.92c0-.46,0-.91,0-1.37s0-.77,0-1.15a16.65,16.65,0,0,0-.23-2.5,8.24,8.24,0,0,0-.77-2.38A8.09,8.09,0,0,0,132,1a8.43,8.43,0,0,0-2.38-.78,16.39,16.39,0,0,0-2.5-.22L126,0Z"/><path d="M12.21,39.2a1.84,1.84,0,0,1-1.31-.52,2.55,2.55,0,0,1-.68-1.88V13.17a2.56,2.56,0,0,1,.68-1.88,1.84,1.84,0,0,1,1.31-.52,2.9,2.9,0,0,1,1.43.42L34.47,23a2.32,2.32,0,0,1,1.36,2,2.33,2.33,0,0,1-1.35,2L13.64,38.77a2.89,2.89,0,0,1-1.43.42Z"/><path class="cls-1" d="M12.21,11.24a2.45,2.45,0,0,1,1.2.36L34.23,23.43c1.49.85,1.49,2.24,0,3.1L13.41,38.37a2.45,2.45,0,0,1-1.2.36,1.37,1.37,0,0,1-1-.38,2.1,2.1,0,0,1-.54-1.55V13.17a2.1,2.1,0,0,1,.54-1.55,1.37,1.37,0,0,1,1-.38m0-.94a2.3,2.3,0,0,0-1.63.65,3,3,0,0,0-.82,2.22V36.8A3,3,0,0,0,10.57,39a2.3,2.3,0,0,0,1.64.65,3.36,3.36,0,0,0,1.66-.48L34.7,27.35A2.81,2.81,0,0,0,36.29,25a2.8,2.8,0,0,0-1.59-2.36L13.87,10.78a3.35,3.35,0,0,0-1.66-.48Z"/><path d="M22.56,15a10,10,0,0,1,9.61,7.27L20,15.33A10,10,0,0,1,22.56,15m0-.62a10.64,10.64,0,0,0-2.74.37l-1.48.39,1.33.75L31.85,22.8l1.33.75-.41-1.47a10.65,10.65,0,0,0-10.21-7.72Z"/><path class="cls-1" d="M32.17,27.7A10,10,0,1,0,20,34.63Z"/><circle cx="22.56" cy="24.98" r="6.37"/><path class="cls-1" d="M22.56,18.73A6.24,6.24,0,1,1,16.31,25a6.25,6.25,0,0,1,6.24-6.24m0-.25A6.49,6.49,0,1,0,29.05,25a6.5,6.5,0,0,0-6.5-6.49Z"/><path class="cls-1" d="M21.83,28.38a1.58,1.58,0,1,1,0-3.17,1.52,1.52,0,0,1,.6.13V21.58h2.44v1.81H23.46V26.8A1.63,1.63,0,0,1,21.83,28.38Z"/><path d="M24.74,21.7v1.56H23.34V26.8a1.5,1.5,0,0,1-1.51,1.46,1.46,1.46,0,1,1,.73-2.72V21.7h2.19m.25-.25H22.31v3.71a1.61,1.61,0,0,0-.48-.07,1.71,1.71,0,0,0,0,3.42,1.76,1.76,0,0,0,1.76-1.71V23.51H25V21.45Z"/><path class="cls-1" d="M46.89,22.09H42.14V35.82h2.15V30.44h2.6A4.43,4.43,0,0,0,50,29.26a4.08,4.08,0,0,0,0-6A4.43,4.43,0,0,0,46.89,22.09Zm2.2,4.17a2.11,2.11,0,0,1-.59,1.45,2,2,0,0,1-1.56.65H44.29V24.16h2.64a2,2,0,0,1,1.56.65A2.11,2.11,0,0,1,49.09,26.26Zm3.7-4.17h2.15V35.82H52.78ZM60.6,26a4.22,4.22,0,0,0-2.58.74,3.77,3.77,0,0,0-1.32,1.61l-.08.2,2,.84.08-.22a1.6,1.6,0,0,1,.73-.85A2.4,2.4,0,0,1,60.64,28a2.24,2.24,0,0,1,1.55.55,1.78,1.78,0,0,1,.61,1.34,5.49,5.49,0,0,0-2.25-.42,4.91,4.91,0,0,0-3,.89,3,3,0,0,0-1.24,2.51,3,3,0,0,0,1,2.38,3.83,3.83,0,0,0,2.57.89A3.58,3.58,0,0,0,62.8,34.9v.92h2.07V30.11a3.87,3.87,0,0,0-1.22-3A4.44,4.44,0,0,0,60.6,26Zm2.19,5.8a2.23,2.23,0,0,1-.79,1.6,2.55,2.55,0,0,1-1.77.73,2.07,2.07,0,0,1-1.2-.35,1,1,0,0,1-.48-.88,1.4,1.4,0,0,1,.55-1.1,2.63,2.63,0,0,1,1.73-.49A3.32,3.32,0,0,1,62.79,31.79Zm9.73-5.51h2.34L69,39.83H66.72L68.94,35l-3.85-8.74h2.34L70,32.51Zm19.15-4.2h2.05V35.82H91.58l.07-9.63L87.77,33H86.51l-3.88-6.81.07,9.64H80.55V22.09h2.05l.06.11L87.14,30Zm10.46,4.2h2.15v9.54h-2.07V34.9a3.73,3.73,0,0,1-.94.74,3.6,3.6,0,0,1-1.8.48A3.42,3.42,0,0,1,96.72,35a4.38,4.38,0,0,1-.93-2.93V26.28h2.14V31.8c0,1.59.65,2.33,2,2.33a1.87,1.87,0,0,0,1.55-.77,2.9,2.9,0,0,0,.62-1.83Zm10.81,5a2.69,2.69,0,0,1,.67,1.78,2.76,2.76,0,0,1-1.08,2.21,4.19,4.19,0,0,1-2.72.87,4.32,4.32,0,0,1-2.65-.79,4.61,4.61,0,0,1-1.53-1.95l-.08-.2,1.93-.8.08.2a2.3,2.3,0,0,0,2.27,1.58,2.06,2.06,0,0,0,1.19-.31.87.87,0,0,0,.42-.75c0-.18,0-.72-1.08-1l-1.84-.44a4.62,4.62,0,0,1-1.74-.89,2.25,2.25,0,0,1-.86-1.85,2.51,2.51,0,0,1,1.16-2.14,4.52,4.52,0,0,1,2.66-.79,4.46,4.46,0,0,1,2.26.58,3.32,3.32,0,0,1,1.45,1.68l.08.2-1.89.78-.08-.2a1.81,1.81,0,0,0-1.88-1.07,2.22,2.22,0,0,0-1.17.28.74.74,0,0,0-.42.67c0,.15,0,.61,1,.85l1.8.43A3.63,3.63,0,0,1,112.94,31.27Zm4.22-8.91a1.43,1.43,0,1,1-2,0A1.43,1.43,0,0,1,117.16,22.36Zm-2.08,3.93h2.14v9.54h-2.14ZM128,33.17l-.08.2a4.58,4.58,0,0,1-1.57,2,4.45,4.45,0,0,1-2.68.79,4.67,4.67,0,0,1-3.52-1.45,5.43,5.43,0,0,1,0-7.23A4.67,4.67,0,0,1,123.68,26a4.36,4.36,0,0,1,2.66.79,4.6,4.6,0,0,1,1.54,2l.08.2-2,.82-.08-.2A2.33,2.33,0,0,0,123.56,28a2.42,2.42,0,0,0-1.84.86,3.43,3.43,0,0,0,0,4.42,2.56,2.56,0,0,0,4.27-.72l.09-.2ZM43.14,16.79h3v1.09H42V10.76h1.13Zm4-3.88h1.13v5H47.09Zm1.1-2a.75.75,0,1,1-1.06,0A.75.75,0,0,1,48.19,10.88ZM53,15.48a1.4,1.4,0,0,1,.35.93,1.44,1.44,0,0,1-.56,1.15,2.18,2.18,0,0,1-1.41.45A2.25,2.25,0,0,1,50,17.6a2.4,2.4,0,0,1-.79-1l0-.12,1-.42,0,.11a1.18,1.18,0,0,0,1.16.81,1,1,0,0,0,.61-.16.44.44,0,0,0,.21-.38c0-.09,0-.36-.55-.5l-.95-.23a2.4,2.4,0,0,1-.9-.46,1.18,1.18,0,0,1-.45-1A1.31,1.31,0,0,1,50,13.16a2.34,2.34,0,0,1,1.38-.41,2.31,2.31,0,0,1,1.18.3,1.72,1.72,0,0,1,.75.87l0,.11-1,.41,0-.12a.92.92,0,0,0-1-.55,1.14,1.14,0,0,0-.6.14.37.37,0,0,0-.21.34c0,.08,0,.3.53.43l.93.22A1.9,1.9,0,0,1,53,15.48Zm3.83,1.28.4,1-.11,0a1.91,1.91,0,0,1-.76.14,1.49,1.49,0,0,1-1.64-1.63V14h-.83V12.91h.83V11.47h1.13v1.44H57V14H55.86v2.27c0,.57.27.64.51.64a.82.82,0,0,0,.35-.07Zm3.26-4a2.23,2.23,0,0,0-1.75.78,2.72,2.72,0,0,0-.68,1.85,2.65,2.65,0,0,0,.7,1.88A2.39,2.39,0,0,0,60.2,18a2.34,2.34,0,0,0,1.37-.39,2.24,2.24,0,0,0,.8-1l0-.12-1-.42,0,.12a1.14,1.14,0,0,1-1.17.73,1.31,1.31,0,0,1-.94-.38,1.42,1.42,0,0,1-.42-.91h3.69l0-.29a2.71,2.71,0,0,0-.66-1.91A2.3,2.3,0,0,0,60.11,12.75Zm0,1.06a1.16,1.16,0,0,1,1.24.88H58.91a1.4,1.4,0,0,1,.41-.6A1.14,1.14,0,0,1,60.09,13.81Zm7.31-.48a2.27,2.27,0,0,1,.49,1.52v3H66.76V15c0-.81-.33-1.18-1-1.18a1,1,0,0,0-.79.39,1.47,1.47,0,0,0-.32.93v2.73H63.47v-5h1.09v.45A1.94,1.94,0,0,1,65,13a1.9,1.9,0,0,1,.95-.25A1.79,1.79,0,0,1,67.4,13.33Zm6.43-.58a2.42,2.42,0,0,0-1.83.75,2.81,2.81,0,0,0,0,3.75,2.59,2.59,0,0,0,3.65,0,2.82,2.82,0,0,0,0-3.75A2.43,2.43,0,0,0,73.83,12.75Zm1.41,2.63a1.58,1.58,0,0,1-.42,1.15,1.36,1.36,0,0,1-2,0,1.55,1.55,0,0,1-.42-1.15,1.56,1.56,0,0,1,.42-1.15,1.36,1.36,0,0,1,2,0A1.58,1.58,0,0,1,75.24,15.38Zm6.39-.53v3H80.5V15c0-.81-.33-1.18-1-1.18a1,1,0,0,0-.79.39,1.47,1.47,0,0,0-.32.93v2.73H77.22v-5h1.09v.45a1.94,1.94,0,0,1,.46-.35,1.9,1.9,0,0,1,.95-.25,1.79,1.79,0,0,1,1.43.58A2.28,2.28,0,0,1,81.63,14.85Zm20.5-2.16a2.6,2.6,0,1,0,2.61,2.6A2.57,2.57,0,0,0,102.13,12.69Zm0,4.18a1.58,1.58,0,1,1,1.47-1.58A1.51,1.51,0,0,1,102.13,16.87Zm-5.7-4.18A2.6,2.6,0,1,0,99,15.3,2.57,2.57,0,0,0,96.43,12.69Zm0,4.18A1.58,1.58,0,1,1,97.9,15.3,1.51,1.51,0,0,1,96.43,16.87Zm-6.78-3.38v1.1h2.64a2.31,2.31,0,0,1-.6,1.39,2.71,2.71,0,0,1-2,.81,2.94,2.94,0,0,1,0-5.88,2.82,2.82,0,0,1,2,.79l.78-.78a3.85,3.85,0,0,0-2.77-1.11,4,4,0,1,0,0,8.09,3.7,3.7,0,0,0,2.82-1.13,3.65,3.65,0,0,0,1-2.58,3.6,3.6,0,0,0-.06-.69Zm27.74.86a2.42,2.42,0,0,0-2.23-1.66,2.47,2.47,0,0,0-2.46,2.6,2.55,2.55,0,0,0,2.58,2.6,2.59,2.59,0,0,0,2.17-1.15l-.89-.59a1.49,1.49,0,0,1-1.28.72,1.32,1.32,0,0,1-1.26-.79l3.48-1.44Zm-3.55.87a1.43,1.43,0,0,1,1.36-1.52,1,1,0,0,1,1,.55ZM111,17.74h1.14V10.09H111Zm-1.87-4.47h0a1.8,1.8,0,0,0-1.37-.58,2.61,2.61,0,0,0,0,5.21,1.78,1.78,0,0,0,1.37-.59h0v.37c0,1-.53,1.53-1.39,1.53a1.44,1.44,0,0,1-1.31-.93l-1,.41a2.48,2.48,0,0,0,2.31,1.54,2.38,2.38,0,0,0,2.48-2.71V12.85h-1.09Zm-1.31,3.6a1.49,1.49,0,0,1-1.45-1.57,1.51,1.51,0,0,1,1.45-1.59,1.47,1.47,0,0,1,1.39,1.59A1.46,1.46,0,0,1,107.82,16.87Z"/></g></g></g></svg>