<svg xmlns="http://www.w3.org/2000/svg" viewBox="0 0 38.62 50"><title>search-google</title><g id="Layer_2" data-name="Layer 2"><g id="Layer_1-2" data-name="Layer 1"><path id="search-google" d="M5.24,42.69a2.19,2.19,0,0,0-1.64-.77c-.73,0-1.58.35-1.58,1.23s.7,1.06,1.71,1.38,2.62.86,2.62,2.62C6.34,49.06,4.83,50,3.07,50A4.08,4.08,0,0,1,0,48.72l1.14-1.06a2.55,2.55,0,0,0,2,1c.75,0,1.62-.37,1.62-1.33s-.94-1.2-2.06-1.56S.39,44.89.39,43.22c0-1.82,1.66-2.63,3.28-2.63a3.91,3.91,0,0,1,2.61,1Zm8.42,4.53H9a1.69,1.69,0,0,0,1.73,1.49,1.84,1.84,0,0,0,1.61-.78l1,.81a3,3,0,0,1-2.61,1.21,3.05,3.05,0,0,1-3.26-3.18,3.1,3.1,0,0,1,3.21-3.25c1.7,0,2.94,1.1,2.94,3.29C13.67,47,13.67,47.08,13.66,47.22Zm-1.51-1.09a1.35,1.35,0,0,0-1.43-1.47A1.62,1.62,0,0,0,9,46.13ZM18.9,49h0a2.15,2.15,0,0,1-1.89.92c-1,0-2.28-.47-2.28-1.88C14.7,46.23,17,46,18.87,46v-.15c0-.75-.63-1.11-1.39-1.11a2.43,2.43,0,0,0-1.66.7L15,44.48a3.83,3.83,0,0,1,2.57-1c2.18,0,2.71,1.34,2.71,2.56v3.69H18.9Zm0-2h-.34c-1,0-2.32.11-2.32,1,0,.58.54.76,1.06.76a1.44,1.44,0,0,0,1.59-1.56Zm3.24-3.3h1.46v1h0a2,2,0,0,1,1.77-1.19,1.72,1.72,0,0,1,.37,0V45a1.77,1.77,0,0,0-.47-.06,1.58,1.58,0,0,0-1.63,1.63v3.25H22.12Zm8.8,1.68a1.61,1.61,0,0,0-1.25-.59,2,2,0,0,0,.05,3.9A1.7,1.7,0,0,0,31,48.14l.95,1a3.06,3.06,0,0,1-2.24.85,3.21,3.21,0,1,1,0-6.43,3,3,0,0,1,2.29.95Zm7.7.59v3.8H37.1V46.43c0-.72-.15-1.61-1.13-1.61a1.48,1.48,0,0,0-1.43,1.63v3.32H33V40.21h1.52v4.34h0a2,2,0,0,1,1.81-1A2.21,2.21,0,0,1,38.62,46ZM16.1,31.58A15.79,15.79,0,1,1,31.89,15.79,15.81,15.81,0,0,1,16.1,31.58Zm0-29.76a14,14,0,1,0,14,14A14,14,0,0,0,16.1,1.82Zm8.36,12.34H16.25v3.36h4.82a4.66,4.66,0,0,1-4.84,3.58,5.33,5.33,0,0,1,0-10.65,4.88,4.88,0,0,1,3.36,1.33L22,9.34A8.6,8.6,0,0,0,7.61,15.77a8.49,8.49,0,0,0,8.45,8.69c4.8,0,8.51-3.07,8.51-8.69A10.52,10.52,0,0,0,24.46,14.15Zm2.8,12.79a1.82,1.82,0,0,0,0,2.57l8,8a1.82,1.82,0,1,0,2.57-2.57l-8-8A1.82,1.82,0,0,0,27.26,26.95Z"/></g></g></svg>