<svg xmlns="http://www.w3.org/2000/svg" viewBox="0 0 136.56 50"><defs><style>.cls-1{fill:#fff;}</style></defs><title>soundcloud</title><g id="Layer_2" data-name="Layer 2"><g id="Layer_1-2" data-name="Layer 1"><g id="bandcamp"><path class="cls-1" d="M22.72,7a.73.73,0,1,1,.76-.72A.73.73,0,0,1,22.72,7ZM38.93,10.7a1.51,1.51,0,0,0-1.6-1.61,1.76,1.76,0,0,0-1.79,1.61Z"/></g><g id="soundcloud"><path id="button_bg" data-name="button bg" d="M124.65,0H10.55L9.4,0A16.44,16.44,0,0,0,6.9.24,8.4,8.4,0,0,0,4.52,1a8.06,8.06,0,0,0-2,1.47A7.86,7.86,0,0,0,1,4.52,8.28,8.28,0,0,0,.24,6.9,16.35,16.35,0,0,0,0,9.4c0,.38,0,.77,0,1.15V39.45c0,.39,0,.76,0,1.15a16.32,16.32,0,0,0,.22,2.5A8.24,8.24,0,0,0,1,45.48a7.74,7.74,0,0,0,1.47,2,7.83,7.83,0,0,0,2,1.47,8.38,8.38,0,0,0,2.38.79A16.94,16.94,0,0,0,9.4,50H127.16a16.71,16.71,0,0,0,2.5-.22A8.48,8.48,0,0,0,132,49a7.82,7.82,0,0,0,2-1.47,8,8,0,0,0,1.48-2,8.22,8.22,0,0,0,.77-2.38,17,17,0,0,0,.23-2.5c0-.39,0-.76,0-1.15s0-.91,0-1.37V11.92c0-.46,0-.91,0-1.37s0-.77,0-1.15a16.65,16.65,0,0,0-.23-2.5,8.24,8.24,0,0,0-.77-2.38A8.09,8.09,0,0,0,132,1a8.43,8.43,0,0,0-2.38-.78,16.39,16.39,0,0,0-2.5-.22L126,0Z"/><path class="cls-1" d="M56.21,23.23a.29.29,0,0,0-.28.27l-.51,3.9.51,3.83a.29.29,0,0,0,.28.27.29.29,0,0,0,.28-.27h0l.61-3.83-.61-3.9A.29.29,0,0,0,56.21,23.23ZM59.1,21.1a.29.29,0,0,0-.58,0l-.69,6.3.69,6.16a.29.29,0,0,0,.58,0l.79-6.16ZM70,15.28a.54.54,0,0,0-.53.53L68.89,27.4l.55,7.49a.53.53,0,0,0,1.06,0h0l.62-7.49L70.5,15.81A.55.55,0,0,0,70,15.28Zm-5.63,4a.42.42,0,0,0-.41.41l-.62,7.68.62,7.43a.41.41,0,0,0,.82,0l.7-7.43-.7-7.68A.42.42,0,0,0,64.34,19.31ZM75.68,35.42a.66.66,0,0,0,.65-.65l.54-7.37L76.33,12A.65.65,0,0,0,75,12l-.48,15.43L75,34.78A.66.66,0,0,0,75.68,35.42Zm11.7,0a.9.9,0,0,0,.89-.89h0l.38-7.16L88.28,9.58a.89.89,0,0,0-1.78,0l-.34,17.82s.34,7.17.34,7.17A.9.9,0,0,0,87.39,35.45Zm-5.9,0a.78.78,0,0,0,.77-.77h0l.46-7.26-.46-15.55a.77.77,0,0,0-1.54,0l-.41,15.55.41,7.25A.77.77,0,0,0,81.49,35.43Zm-14.35-.07a.48.48,0,0,0,.47-.46l.66-7.49-.66-7.13a.47.47,0,0,0-.94,0l-.58,7.13.58,7.49A.48.48,0,0,0,67.14,35.36Zm-5.58-.41a.36.36,0,0,0,.35-.34l.74-7.2-.74-7.48a.36.36,0,0,0-.35-.34.36.36,0,0,0-.35.34l-.65,7.48.65,7.2A.36.36,0,0,0,61.56,34.95ZM84.43,11.6a.83.83,0,0,0-.83.83l-.37,15,.37,7.21a.83.83,0,0,0,1.66,0h0l.42-7.21-.42-15A.83.83,0,0,0,84.43,11.6ZM72.81,35.43a.6.6,0,0,0,.59-.59L74,27.41,73.4,13.16a.59.59,0,0,0-1.18,0l-.51,14.25.51,7.45A.6.6,0,0,0,72.81,35.43Zm6.47-.7h0l.5-7.32-.5-16a.71.71,0,0,0-1.42,0l-.44,16,.44,7.32a.71.71,0,0,0,1.42,0ZM117,18.21a8.62,8.62,0,0,0-3.34.67A15.23,15.23,0,0,0,98.45,5a15.43,15.43,0,0,0-5.52,1c-.65.25-.82.51-.83,1V34.44a1,1,0,0,0,.93,1H117a8.63,8.63,0,0,0,0-17.26ZM90.33,7a1,1,0,0,0-1,.95L89,27.41l.39,7.06a1,1,0,0,0,1.9,0h0l.42-7.06L91.28,8A1,1,0,0,0,90.33,7ZM62.38,41c-1-.24-1.3-.37-1.3-.77s.23-.58.92-.58a2,2,0,0,1,1.46.66l.93-.9a3.08,3.08,0,0,0-2.35-1c-1.27,0-2.3.72-2.3,1.89s.83,1.65,2,1.92,1.44.46,1.44.87-.36.7-1.12.7A2.08,2.08,0,0,1,60.44,43l-.93.83A3,3,0,0,0,62,45c1.76,0,2.53-.83,2.53-2.05C64.54,41.55,63.41,41.2,62.38,41Zm5.93-2.6c-1.76,0-2.8,1.36-2.8,3.32s1,3.32,2.8,3.32,2.8-1.36,2.8-3.32S70.07,38.36,68.31,38.36Zm0,5.36c-1,0-1.47-.89-1.47-2s.43-2,1.47-2,1.47.89,1.47,2S69.35,43.72,68.31,43.72Zm8-1.65c0,1-.51,1.67-1.33,1.67s-1.32-.65-1.32-1.68v-3.6H72.38v3.62c0,1.88,1,2.92,2.6,2.92s2.61-1.08,2.61-2.94v-3.6H76.31Zm6.84-.89c0,.36,0,1.17,0,1.41-.08-.17-.29-.49-.45-.73l-2.28-3.4H79.2V44.9h1.27V42.07c0-.36,0-1.17,0-1.41.08.16.29.49.45.73l2.37,3.51h1.15V38.46H83.15Zm4.94-2.72h-2V44.9H88a3.06,3.06,0,0,0,3.29-3.22A2.87,2.87,0,0,0,88.09,38.46ZM88,43.65h-.63V39.71H88c1.36,0,1.92.65,1.92,2A1.78,1.78,0,0,1,88,43.65Zm7.28-4a1.22,1.22,0,0,1,1.18.7l1.2-.55a2.43,2.43,0,0,0-2.36-1.43c-1.68,0-2.86,1.36-2.86,3.32S93.57,45,95.25,45a2.46,2.46,0,0,0,2.38-1.45l-1.09-.64a1.35,1.35,0,0,1-1.26.82c-1,0-1.53-.88-1.53-2S94.31,39.64,95.28,39.64Zm4.78-1.18H98.77V44.9h3.87V43.63h-2.58Zm6-.1c-1.76,0-2.8,1.36-2.8,3.32s1,3.32,2.8,3.32,2.8-1.36,2.8-3.32S107.79,38.36,106,38.36Zm0,5.36c-1,0-1.47-.89-1.47-2s.43-2,1.47-2,1.47.89,1.47,2S107.07,43.72,106,43.72Zm8-1.65c0,1-.5,1.67-1.32,1.67s-1.32-.65-1.32-1.68v-3.6H110.1v3.62c0,1.88,1,2.92,2.6,2.92s2.61-1.08,2.61-2.94v-3.6H114Zm4.91-3.62h-2V44.9h1.92a3.06,3.06,0,0,0,3.29-3.22A2.87,2.87,0,0,0,118.94,38.46Zm-.09,5.19h-.63V39.71h.68c1.36,0,1.92.65,1.92,2A1.78,1.78,0,0,1,118.85,43.65ZM17.22,13H21V14H16V5.55h1.19Zm5.5-6a.73.73,0,1,1,.76-.72A.73.73,0,0,1,22.72,7Zm.56,7H22.15V8.36h1.13Zm5-4.25A1.55,1.55,0,0,0,27,9.09c-.52,0-1.06.2-1.06.74s.43.66,1.3.85c1.08.24,1.91.68,1.91,1.68,0,1.34-1.12,1.83-2.27,1.83a2.91,2.91,0,0,1-2.29-1l.8-.68a1.87,1.87,0,0,0,1.51.79c.56,0,1.13-.2,1.13-.83s-.52-.72-1.49-.95c-.76-.18-1.65-.5-1.65-1.57,0-1.22,1.07-1.74,2.15-1.74a2.51,2.51,0,0,1,2.06.94Zm5.36-.52H32.13v3c0,.68.24,1,.8,1a1.6,1.6,0,0,0,.66-.14l0,.92a2.92,2.92,0,0,1-1,.16c-1.07,0-1.65-.6-1.65-1.77V9.28H29.93V8.36H31V6.73h1.12V8.36h1.51Zm6.41,2.25H35.55a1.82,1.82,0,0,0,1.85,1.73,2,2,0,0,0,1.65-.86l.79.64A2.93,2.93,0,0,1,37.4,14.2a2.87,2.87,0,0,1-3-3,2.88,2.88,0,0,1,2.94-3,2.65,2.65,0,0,1,2.73,3C40.07,11.28,40.07,11.41,40.06,11.54Zm-1.13-.84a1.51,1.51,0,0,0-1.6-1.61,1.76,1.76,0,0,0-1.79,1.61Zm3.69-2.34c0,.29,0,.7,0,.94h0a2.12,2.12,0,0,1,4,1.22V14H45.55V10.89c0-.92-.25-1.74-1.3-1.74-.89,0-1.52.74-1.52,1.87v3H41.6V9.58c0-.3,0-.85,0-1.22ZM54.27,14.2a3,3,0,0,1-3.06-3,3.06,3.06,0,1,1,3.06,3Zm0-5.06a1.91,1.91,0,0,0-1.9,2.05,1.9,1.9,0,1,0,3.79,0A1.9,1.9,0,0,0,54.27,9.14Zm5.62-.78c0,.29,0,.7,0,.94h0a2.12,2.12,0,0,1,4,1.22V14H62.82V10.89c0-.92-.25-1.74-1.3-1.74C60.63,9.15,60,9.9,60,11v3H58.87V9.58c0-.3,0-.85,0-1.22Z"/></g></g></g></svg>