<svg xmlns="http://www.w3.org/2000/svg" viewBox="0 0 136.56 50"><defs><style>.cls-1{fill:#fff;}</style></defs><title>spotify</title><g id="Layer_2" data-name="Layer 2"><g id="Layer_1-2" data-name="Layer 1"><g id="bandcamp"><path class="cls-1" d="M22.72,7a.73.73,0,1,1,.76-.72A.73.73,0,0,1,22.72,7ZM38.93,10.7a1.51,1.51,0,0,0-1.6-1.61,1.76,1.76,0,0,0-1.79,1.61Z"/></g><g id="soundcloud"><path class="cls-1" d="M42.62,8.36c0,.29,0,.7,0,.94h0a2.12,2.12,0,0,1,4,1.22V14H45.55V10.89c0-.92-.25-1.74-1.3-1.74-.89,0-1.52.74-1.52,1.87v3H41.6V9.58c0-.3,0-.85,0-1.22Z"/></g><g id="spotify"><path id="button_bg" data-name="button bg" d="M124.65,0H10.55L9.4,0A16.44,16.44,0,0,0,6.9.24,8.4,8.4,0,0,0,4.52,1a8.06,8.06,0,0,0-2,1.47A7.86,7.86,0,0,0,1,4.52,8.28,8.28,0,0,0,.24,6.9,16.35,16.35,0,0,0,0,9.4c0,.38,0,.77,0,1.15V39.45c0,.39,0,.76,0,1.15a16.32,16.32,0,0,0,.22,2.5A8.24,8.24,0,0,0,1,45.48a7.74,7.74,0,0,0,1.47,2,7.83,7.83,0,0,0,2,1.47,8.38,8.38,0,0,0,2.38.79A16.94,16.94,0,0,0,9.4,50H127.16a16.71,16.71,0,0,0,2.5-.22A8.48,8.48,0,0,0,132,49a7.82,7.82,0,0,0,2-1.47,8,8,0,0,0,1.48-2,8.22,8.22,0,0,0,.77-2.38,17,17,0,0,0,.23-2.5c0-.39,0-.76,0-1.15s0-.91,0-1.37V11.92c0-.46,0-.91,0-1.37s0-.77,0-1.15a16.65,16.65,0,0,0-.23-2.5,8.24,8.24,0,0,0-.77-2.38A8.09,8.09,0,0,0,132,1a8.43,8.43,0,0,0-2.38-.78,16.39,16.39,0,0,0-2.5-.22L126,0Z"/><path class="cls-1" d="M53.22,12H57V13H52V4.55h1.19Zm5.5-6a.73.73,0,1,1,.76-.72A.73.73,0,0,1,58.72,6Zm.56,7H58.15V7.36h1.13Zm5-4.25A1.55,1.55,0,0,0,63,8.09c-.52,0-1.06.2-1.06.74s.43.66,1.3.85c1.08.24,1.91.68,1.91,1.68,0,1.34-1.12,1.83-2.27,1.83a2.91,2.91,0,0,1-2.29-1l.8-.68a1.87,1.87,0,0,0,1.51.79c.56,0,1.13-.2,1.13-.83s-.52-.72-1.49-.95c-.76-.18-1.65-.5-1.65-1.57,0-1.22,1.07-1.74,2.15-1.74a2.51,2.51,0,0,1,2.06.94Zm5.36-.52H68.13v3c0,.68.24,1,.8,1a1.6,1.6,0,0,0,.66-.14l0,.92a2.92,2.92,0,0,1-1,.16c-1.07,0-1.65-.6-1.65-1.77V8.28H65.93V7.36H67V5.73h1.12V7.36h1.51Zm6.41,2.25H71.55a1.82,1.82,0,0,0,1.85,1.73,2,2,0,0,0,1.65-.86l.79.64A2.93,2.93,0,0,1,73.4,13.2a2.87,2.87,0,0,1-3-3,2.88,2.88,0,0,1,2.94-3,2.65,2.65,0,0,1,2.73,3C76.07,10.28,76.07,10.41,76.06,10.54ZM74.93,9.7a1.51,1.51,0,0,0-1.6-1.61A1.76,1.76,0,0,0,71.55,9.7Zm3.69-2.34c0,.29,0,.7,0,.94h0a2.12,2.12,0,0,1,4,1.22V13H81.55V9.89c0-.92-.25-1.74-1.3-1.74-.89,0-1.52.74-1.52,1.87v3H77.6V8.58c0-.3,0-.85,0-1.22ZM90.27,13.2a3,3,0,0,1-3.06-3,3.07,3.07,0,0,1,6.13,0A3,3,0,0,1,90.27,13.2Zm0-5.06a1.91,1.91,0,0,0-1.9,2.05,1.9,1.9,0,1,0,3.79,0A1.9,1.9,0,0,0,90.27,8.14Zm5.62-.78c0,.29,0,.7,0,.94h0a2.12,2.12,0,0,1,4,1.22V13H98.82V9.89c0-.92-.25-1.74-1.3-1.74C96.63,8.15,96,8.9,96,10v3H94.87V8.58c0-.3,0-.85,0-1.22ZM28.82,8a17,17,0,1,0,17,17,17,17,0,0,0-17-17m7.8,24.52a1.06,1.06,0,0,1-1.46.35c-4-2.44-9-3-14.93-1.64a1.06,1.06,0,1,1-.47-2.07c6.48-1.48,12-.84,16.51,1.89a1.06,1.06,0,0,1,.35,1.46m2.08-4.63a1.33,1.33,0,0,1-1.82.44,22.31,22.31,0,0,0-16.94-2,1.33,1.33,0,1,1-.77-2.54,24.8,24.8,0,0,1,19.1,2.26,1.32,1.32,0,0,1,.44,1.82m.18-4.82c-5.48-3.25-14.52-3.55-19.75-2a1.59,1.59,0,1,1-.92-3c6-1.82,16-1.47,22.3,2.27a1.59,1.59,0,0,1-1.62,2.74m19.2.62c3.58.87,5,2.22,5,4.66,0,2.89-2.21,4.75-5.62,4.75A9.58,9.58,0,0,1,51,30.63a.19.19,0,0,1,0-.27l1.61-1.91a.19.19,0,0,1,.13-.07.21.21,0,0,1,.14,0,6.74,6.74,0,0,0,4.67,1.93c1.54,0,2.5-.67,2.5-1.74s-.47-1.51-3.28-2.16c-3.3-.8-5.21-1.83-5.21-4.75,0-2.72,2.21-4.62,5.38-4.62a8.67,8.67,0,0,1,5.64,2,.19.19,0,0,1,0,.26l-1.43,2a.19.19,0,0,1-.13.08.19.19,0,0,1-.15,0,6.67,6.67,0,0,0-4-1.52c-1.37,0-2.28.66-2.28,1.63s.52,1.52,3.46,2.22M70.83,20.8a4.6,4.6,0,0,0-3.7,1.78V21.23a.19.19,0,0,0-.19-.19H64.32a.19.19,0,0,0-.19.19V36.17a.19.19,0,0,0,.19.19h2.63a.19.19,0,0,0,.19-.19V31.46a4.72,4.72,0,0,0,3.7,1.67c2.75,0,5.54-2.12,5.54-6.16s-2.78-6.17-5.54-6.17M73.31,27c0,2.06-1.27,3.5-3.09,3.5A3.27,3.27,0,0,1,67.07,27a3.27,3.27,0,0,1,3.15-3.5A3.2,3.2,0,0,1,73.31,27M83.5,20.8A6.18,6.18,0,1,0,89.8,27,6.2,6.2,0,0,0,83.5,20.8m0,9.69A3.34,3.34,0,0,1,80.2,27a3.26,3.26,0,0,1,3.26-3.48A3.35,3.35,0,0,1,86.79,27a3.27,3.27,0,0,1-3.28,3.48M97.36,21a.19.19,0,0,1,.19.19v2.26a.19.19,0,0,1-.19.19H94.47v5.43c0,.86.38,1.24,1.22,1.24A3.31,3.31,0,0,0,97.23,30a.19.19,0,0,1,.28.17v2.15a.19.19,0,0,1-.1.17,4.79,4.79,0,0,1-2.46.61c-2.32,0-3.49-1.2-3.49-3.56V23.68H90.19a.19.19,0,0,1-.19-.19V21.23a.19.19,0,0,1,.19-.19h1.26v-3a.19.19,0,0,1,.19-.19h2.63a.19.19,0,0,1,.19.19v3h2.89m14.57,0a.19.19,0,0,1,.18.12l3.07,8,2.8-8a.19.19,0,0,1,.18-.13h2.74a.19.19,0,0,1,.18.26L116.52,33.1c-.95,2.43-2,3.34-4,3.34a5.54,5.54,0,0,1-2.81-.72.19.19,0,0,1-.08-.25l.89-2a.19.19,0,0,1,.11-.1.2.2,0,0,1,.15,0,3,3,0,0,0,1.45.41c.57,0,1-.19,1.42-1.14l-3.76-9h-2.45v9a.19.19,0,0,1-.19.19h-2.63a.19.19,0,0,1-.19-.19v-9h-1.26a.19.19,0,0,1-.19-.19V21.22a.19.19,0,0,1,.19-.19h1.26v-.56c0-2.59,1.28-4,3.71-4a7.21,7.21,0,0,1,2.19.31.19.19,0,0,1,.14.18v2.21a.19.19,0,0,1-.25.18,4.43,4.43,0,0,0-1.48-.27c-.92,0-1.33.48-1.33,1.55v.36ZM101.6,21a.19.19,0,0,1,.19.19V32.7a.19.19,0,0,1-.19.19H99a.19.19,0,0,1-.19-.19V21.23A.19.19,0,0,1,99,21h2.63m-1.3-5.22a1.88,1.88,0,1,1-1.89,1.88,1.88,1.88,0,0,1,1.89-1.88m23,8.91a1.85,1.85,0,1,1,1.86-1.86,1.84,1.84,0,0,1-1.86,1.86m0-3.53A1.67,1.67,0,1,0,125,22.87a1.65,1.65,0,0,0-1.65-1.66m.41,1.86.52.73h-.44l-.47-.67h-.4v.67h-.37V21.85h.87c.45,0,.75.23.75.62a.58.58,0,0,1-.45.59m-.31-.88h-.48v.61h.48c.24,0,.38-.12.38-.31s-.14-.31-.38-.31"/></g></g></g></svg>